HIERARCHY
ROOT Hips
{
	OFFSET 0.0000 0.0000 0.0000
	CHANNELS 6 Xposition Yposition Zposition Zrotation Xrotation Yrotation
	JOINT Spine1
	{
		OFFSET -0.0137 5.0038 -0.0537
		CHANNELS 3 Zrotation Xrotation Yrotation
		JOINT Spine2
		{
			OFFSET -0.0000 7.1253 -0.0298
			CHANNELS 3 Zrotation Xrotation Yrotation
			JOINT Chest
			{
				OFFSET -0.0000 7.5501 -0.8160
				CHANNELS 3 Zrotation Xrotation Yrotation
				JOINT Neck1
				{
					OFFSET -0.1817 26.3113 -0.5533
					CHANNELS 3 Zrotation Xrotation Yrotation
					JOINT Neck2
					{
						OFFSET -0.0000 7.7094 2.3026
						CHANNELS 3 Zrotation Xrotation Yrotation
						JOINT Head
						{
							OFFSET -0.0000 6.1289 1.9537
							CHANNELS 3 Zrotation Xrotation Yrotation
							JOINT Jaw
							{
								OFFSET 0.0026 0.4756 3.0949
								CHANNELS 3 Zrotation Xrotation Yrotation
								End Site
								{
									OFFSET 0.0 1.0 0.0
								}
							}
							JOINT LeftEye
							{
								OFFSET 3.2064 5.3802 7.5869
								CHANNELS 3 Zrotation Xrotation Yrotation
								End Site
								{
									OFFSET 0.0 1.0 0.0
								}
							}
							JOINT RightEye
							{
								OFFSET -3.2224 5.3619 7.5582
								CHANNELS 3 Zrotation Xrotation Yrotation
								End Site
								{
									OFFSET 0.0 1.0 0.0
								}
							}
						}
					}
				}
				JOINT LeftShoulder
				{
					OFFSET 1.6217 23.2372 5.1134
					CHANNELS 3 Zrotation Xrotation Yrotation
					JOINT LeftArm
					{
						OFFSET 14.9198 0.0000 -5.5023
						CHANNELS 3 Zrotation Xrotation Yrotation
						JOINT LeftForeArm
						{
							OFFSET 28.7393 0.0000 -0.0026
							CHANNELS 3 Zrotation Xrotation Yrotation
							JOINT LeftHand
							{
								OFFSET 27.0940 -0.0000 0.0026
								CHANNELS 3 Zrotation Xrotation Yrotation
								JOINT LeftHandThumbEnd
								{
									OFFSET 12.2686 -3.2202 4.8331
									CHANNELS 3 Zrotation Xrotation Yrotation
									End Site
									{
										OFFSET 0.0 1.0 0.0
									}
								}
								JOINT LeftHandMiddleEnd
								{
									OFFSET 19.0120 -0.3129 -0.0340
									CHANNELS 3 Zrotation Xrotation Yrotation
									End Site
									{
										OFFSET 0.0 1.0 0.0
									}
								}
							}
						}
					}
				}
				JOINT RightShoulder
				{
					OFFSET -1.3801 23.1803 5.2142
					CHANNELS 3 Zrotation Xrotation Yrotation
					JOINT RightArm
					{
						OFFSET -15.0372 0.0000 -5.5456
						CHANNELS 3 Zrotation Xrotation Yrotation
						JOINT RightForeArm
						{
							OFFSET -28.7366 0.0000 -0.0026
							CHANNELS 3 Zrotation Xrotation Yrotation
							JOINT RightHand
							{
								OFFSET -27.1336 -0.0000 0.0026
								CHANNELS 3 Zrotation Xrotation Yrotation
								JOINT RightHandThumbEnd
								{
									OFFSET -12.2642 -3.2115 4.8040
									CHANNELS 3 Zrotation Xrotation Yrotation
									End Site
									{
										OFFSET 0.0 1.0 0.0
									}
								}
								JOINT RightHandMiddleEnd
								{
									OFFSET -19.0006 -0.3066 -0.0316
									CHANNELS 3 Zrotation Xrotation Yrotation
									End Site
									{
										OFFSET 0.0 1.0 0.0
									}
								}
							}
						}
					}
				}
			}
		}
	}
	JOINT LeftLeg
	{
		OFFSET 10.0432 -8.4345 2.5957
		CHANNELS 3 Zrotation Xrotation Yrotation
		JOINT LeftShin
		{
			OFFSET -0.0000 -43.2218 -0.8029
			CHANNELS 3 Zrotation Xrotation Yrotation
			JOINT LeftFoot
			{
				OFFSET 0.0000 -42.1551 -3.4815
				CHANNELS 3 Zrotation Xrotation Yrotation
				JOINT LeftToeBase
				{
					OFFSET 0.0000 -5.0595 13.2315
					CHANNELS 3 Zrotation Xrotation Yrotation
					End Site
					{
						OFFSET 0.0 1.0 0.0
					}
				}
			}
		}
	}
	JOINT RightLeg
	{
		OFFSET -10.0473 -8.2953 2.6203
		CHANNELS 3 Zrotation Xrotation Yrotation
		JOINT RightShin
		{
			OFFSET 0.0000 -43.3622 -0.8056
			CHANNELS 3 Zrotation Xrotation Yrotation
			JOINT RightFoot
			{
				OFFSET 0.0000 -42.1174 -3.4784
				CHANNELS 3 Zrotation Xrotation Yrotation
				JOINT RightToeBase
				{
					OFFSET -0.0000 -5.0796 13.2842
					CHANNELS 3 Zrotation Xrotation Yrotation
					End Site
					{
						OFFSET 0.0 1.0 0.0
					}
				}
			}
		}
	}
}
MOTION
Frames: 8
Frame Time: 0.033333
3.5265 93.8156 -2.3947 0.7039 9.8208 -1.2442 -0.2519 14.1655 -1.0213 -0.8548 1.0283 -1.7641 -2.1785 26.5369 -5.0175 6.4294 17.6030 0.6481 -1.0317 -3.7661 -3.0523 4.3403 -10.3289 -4.8676 -0.0545 -0.0870 0.0355 0.6644 -10.5156 -3.7744 -0.7612 -10.5045 3.8587 13.6048 15.9788 -16.5236 -58.5445 -47.2204 -22.0777 -0.5670 0.7758 -116.0538 4.8826 0.6697 8.0044 -14.8713 10.4268 15.1872 -59.8977 1.6499 2.4908 -6.7181 21.9481 9.7731 49.7984 -6.4581 41.2389 2.8329 0.9395 88.5748 -22.4632 61.5836 -28.8207 15.4519 7.5575 -16.2000 50.8890 -3.1641 -5.8659 11.3175 -34.0938 8.8461 -0.1984 37.2141 -0.3883 -16.8395 -12.9175 3.0857 1.6095 -0.5484 -1.9941 -4.2165 -43.0607 -24.7933 0.2227 25.9347 0.2361 9.5078 6.8390 0.8664 -1.4230 0.3115 1.0093
3.8285 93.5328 -2.3087 0.3821 9.8101 -1.2884 -0.2787 14.4357 -0.9979 -0.8886 1.1193 -1.7134 -2.2748 26.7235 -4.9597 5.9184 17.8946 0.6969 -0.9258 -3.7328 -2.9933 4.2434 -9.9486 -4.7244 -0.1165 -0.0948 0.0673 0.5957 -10.5387 -3.7297 -0.8174 -10.5063 3.8972 13.7911 16.1735 -16.6770 -58.1946 -47.7309 -23.1919 -0.6576 0.6919 -115.6939 4.9571 0.0724 7.6236 -15.0232 10.4461 15.1204 -60.0435 1.6988 2.4918 -6.8648 22.1889 9.5579 50.1233 -6.1346 42.5346 3.3814 1.1279 89.7855 -21.5680 62.7793 -29.0637 15.2628 7.6580 -16.2023 51.0266 -3.1156 -5.8736 11.7091 -34.8695 8.3876 -0.2365 38.8116 -0.4335 -16.6501 -13.7530 3.2016 1.6082 -0.4256 -1.9776 -4.4620 -43.3807 -24.0927 0.2090 26.6958 0.2348 9.7829 6.6531 0.3523 -1.4445 0.3155 1.0052
4.0541 93.1482 -2.2239 0.0507 9.7568 -1.3561 -0.3377 14.7447 -0.9645 -0.9199 1.2177 -1.6964 -2.2752 26.9772 -4.8370 5.5179 18.2770 0.8430 -0.9248 -3.7172 -2.9940 4.0242 -9.3935 -4.5618 -0.1549 -0.1007 0.0882 0.5636 -10.5821 -3.7100 -0.8629 -10.5320 3.9318 14.1889 16.4491 -16.8045 -58.3446 -48.0178 -23.9359 -0.7270 0.6614 -115.4073 4.7821 -0.9003 7.4618 -15.1854 10.4668 15.0947 -60.1982 1.6848 2.4924 -7.1807 22.4342 9.5294 50.6171 -5.6751 43.9526 3.7056 1.3606 91.1065 -20.7964 64.1663 -29.8269 15.1793 7.7826 -16.2087 51.1746 -3.0906 -5.8591 12.1937 -35.6780 7.7943 -0.2631 40.6232 -0.4726 -16.4505 -14.5387 3.5492 1.6161 -0.2388 -1.9799 -4.8224 -43.9012 -23.1419 0.2146 27.9656 0.2486 10.0379 6.3451 -0.1761 -1.4568 0.4206 1.0077
4.2287 92.7628 -2.0962 -0.2900 9.7850 -1.4496 -0.3815 15.0317 -0.9146 -0.9384 1.3112 -1.7127 -2.1947 27.2461 -4.6624 5.1425 18.6550 1.0160 -0.9733 -3.7085 -3.0497 3.7303 -8.7645 -4.3707 -0.1643 -0.1085 0.0935 0.5647 -10.6302 -3.7175 -0.8829 -10.5776 3.9529 14.6026 16.7738 -16.8764 -58.7431 -48.0952 -24.2843 -0.8534 0.6960 -115.2749 4.4790 -2.1208 7.5976 -15.2824 10.5480 15.1285 -60.3254 1.6929 2.5044 -7.5703 22.6513 9.6203 51.2147 -5.1856 45.1817 3.9092 1.4456 92.5205 -20.3602 65.5326 -30.9293 15.1736 7.8909 -16.2401 51.3638 -3.0773 -5.8382 12.7531 -36.4164 7.0804 -0.2738 42.2222 -0.4921 -16.3176 -15.1777 4.0827 1.6210 -0.0415 -1.9819 -5.1833 -44.4428 -21.9974 0.2232 29.2697 0.2682 10.2293 5.9847 -0.7605 -1.4652 0.4923 1.0218
4.3660 92.4512 -1.9827 -0.6019 10.0001 -1.5781 -0.3777 15.2713 -0.9095 -0.9883 1.4383 -1.6469 -2.0716 27.5101 -4.5534 4.7947 19.0322 1.1882 -1.0070 -3.7008 -3.1053 3.4223 -8.0804 -4.1295 -0.1701 -0.1169 0.0932 0.5619 -10.6684 -3.7250 -0.8907 -10.6154 3.9618 14.9177 17.1088 -16.8643 -59.3393 -48.0665 -24.0880 -1.0808 0.7337 -115.3898 4.0579 -3.4555 7.8148 -15.3751 10.6274 15.1776 -60.4280 1.7253 2.4994 -8.0686 22.8373 9.7336 51.9607 -4.8738 46.0776 4.0714 1.4967 94.0175 -20.1399 66.6861 -32.0850 15.2383 7.9406 -16.2355 51.5447 -3.0741 -5.8160 13.2846 -37.1192 6.3500 -0.2850 43.4754 -0.5243 -16.2499 -15.7000 4.7246 1.6209 0.1492 -1.9815 -5.3971 -45.0214 -20.9453 0.2558 30.3257 0.3341 10.3909 5.6832 -1.3147 -1.4692 0.6031 1.0397
4.4509 92.2576 -1.8572 -0.8399 10.4173 -1.7839 -0.3644 15.5280 -0.8723 -0.9988 1.5576 -1.6381 -1.9577 27.7763 -4.4357 4.5067 19.4123 1.2939 -1.0334 -3.7144 -3.0965 3.1163 -7.3232 -3.8934 -0.1771 -0.1263 0.0912 0.5635 -10.7195 -3.7387 -0.9060 -10.6660 3.9751 15.1228 17.4159 -16.8278 -60.1671 -47.9438 -23.3704 -1.3186 0.7105 -115.7674 3.5347 -4.5842 8.1651 -15.4428 10.6669 15.2041 -60.5134 1.7620 2.4605 -8.5794 22.9807 9.8840 52.8353 -4.6060 46.6872 4.0798 1.4287 95.4070 -20.1979 67.7168 -33.0739 15.3333 7.9621 -16.2163 51.7433 -3.0666 -5.7906 13.7336 -37.7839 5.5874 -0.2985 44.3721 -0.5545 -16.2299 -16.0833 5.5257 1.6223 0.3259 -1.9762 -5.4816 -45.6923 -20.0334 0.2901 31.1204 0.3970 10.5721 5.4650 -1.7391 -1.4706 0.6980 1.0635
4.4460 92.1530 -1.7038 -1.0427 11.0111 -2.0858 -0.3252 15.7938 -0.8258 -1.0106 1.7004 -1.6053 -1.8162 28.0380 -4.2775 4.3587 19.7088 1.3559 -1.0312 -3.7282 -3.0835 2.7343 -6.5528 -3.6069 -0.1911 -0.1371 0.0863 0.5601 -10.7707 -3.7515 -0.9312 -10.7183 3.9848 15.2296 17.7318 -16.7954 -61.2787 -47.8272 -22.0632 -1.5959 0.5746 -116.2869 2.9147 -5.4152 8.6258 -15.5281 10.6987 15.2722 -60.5968 1.7862 2.4506 -8.9944 23.0763 10.0964 53.7823 -4.4531 47.0883 3.9699 1.3303 96.4554 -19.6697 68.5023 -33.0210 15.4100 7.9230 -16.1853 51.8564 -3.0883 -5.8045 14.1635 -38.3768 4.7401 -0.3071 44.8763 -0.5822 -16.3122 -16.3127 6.5631 1.6266 0.4784 -1.9692 -5.3966 -46.4084 -19.2546 0.3135 31.6310 0.4435 10.7417 5.3611 -2.0308 -1.4696 0.7848 1.0642
4.3948 92.1045 -1.5161 -1.2313 11.7983 -2.4853 -0.2819 16.0633 -0.7743 -1.0245 1.8757 -1.5614 -1.6367 28.3009 -4.0450 4.4702 19.8783 1.4075 -1.0288 -3.7390 -3.0537 2.2431 -5.7592 -3.3316 -0.1842 -0.1465 0.0682 0.5834 -10.8026 -3.7849 -0.9389 -10.7539 3.9803 15.3606 18.0949 -16.7583 -62.7275 -47.7981 -20.2312 -1.8529 0.3556 -117.0243 2.2261 -6.0443 9.0462 -15.6031 10.7194 15.3872 -60.6178 1.8065 2.4715 -9.2918 23.0951 10.3346 54.6949 -4.3691 47.5480 3.6945 1.2532 97.0594 -18.0479 69.0152 -31.5287 15.4277 7.8876 -16.1660 51.9102 -3.0944 -5.8194 14.6788 -38.9392 3.6246 -0.2988 45.1313 -0.5937 -16.4656 -16.4120 7.9590 1.6312 0.6074 -1.9674 -5.1526 -47.2356 -18.6221 0.3282 31.9775 0.4839 10.8335 5.2947 -2.2758 -1.4660 0.8448 1.0469
